<?xml version="1.0" encoding="UTF-8"?>
<!DOCTYPE svg PUBLIC "-//W3C//DTD SVG 1.1//EN" "http://www.w3.org/Graphics/SVG/1.1/DTD/svg11.dtd">
<!-- Creator: CorelDRAW X6 -->
<svg xmlns="http://www.w3.org/2000/svg" xml:space="preserve" width="36.9005mm" height="36.9005mm" version="1.1" style="shape-rendering:geometricPrecision; text-rendering:geometricPrecision; image-rendering:optimizeQuality; fill-rule:evenodd; clip-rule:evenodd"
viewBox="0 0 1143 1143"
 xmlns:xlink="http://www.w3.org/1999/xlink">
 <defs>
  <style type="text/css">
   <![CDATA[
    .fil0 {fill:none}
    .fil1 {fill:#999999}
   ]]>
  </style>
 </defs>
 <g id="Capa_x0020_1">
  <metadata id="CorelCorpID_0Corel-Layer"/>
  <rect class="fil0" width="1143" height="1143"/>
  <path class="fil1" d="M672 572l428 -428c28,-28 28,-73 0,-101 -28,-28 -73,-28 -101,0l-428 428 -428 -428c-28,-28 -73,-28 -101,0 -28,28 -28,73 0,101l428 428 -428 428c-28,28 -28,73 0,101 14,14 32,21 50,21 18,0 36,-7 50,-21l428 -428 428 428c14,14 32,21 50,21 18,0 36,-7 50,-21 28,-28 28,-73 0,-101l-428 -428zm0 0z"/>
 </g>
</svg>
